<?xml version="1.0" standalone="no"?><!DOCTYPE svg PUBLIC "-//W3C//DTD SVG 1.1//EN" "http://www.w3.org/Graphics/SVG/1.1/DTD/svg11.dtd"><svg t="1621903650520" class="icon" viewBox="0 0 1024 1024" version="1.1" xmlns="http://www.w3.org/2000/svg" p-id="8403" xmlns:xlink="http://www.w3.org/1999/xlink" width="48" height="48"><defs><style type="text/css"></style></defs><path d="M0.536126 0m56.840042 0l909.247664 0q56.840042 0 56.840042 56.840042l0 909.247665q0 56.840042-56.840042 56.840042l-909.247664 0q-56.840042 0-56.840042-56.840042l0-909.247665q0-56.840042 56.840042-56.840042Z" fill="#D6DFE8" p-id="8404"></path><path d="M1023.463874 852.439791v113.658638c0 31.392302-25.44774 56.840042-56.840042 56.840042H57.376168C25.983866 1022.938471 0.536126 997.490731 0.536126 966.098429V852.439791c0 31.392302 25.44774 56.840042 56.840042 56.840041h909.247664c31.392302 0 56.840042-25.44774 56.840042-56.840041z" fill="#BBC7D3" p-id="8405"></path><path d="M564.365537 208.373814c26.087874 43.59881 41.104754 94.147954 41.104754 148.067183 0 164.283912-138.660323 297.501487-309.656528 297.501487A321.037403 321.037403 0 0 1 227.853403 646.675837c50.750727 110.049441 165.296117 186.82049 298.585533 186.82049C706.753005 833.496327 852.975916 693.012105 852.975916 519.777039c0-160.808746-126.164306-293.394764-288.610379-311.403225z" fill="#AFBAC4" p-id="8406"></path><path d="M360.487673 529.931259l-35.215949 19.418471 6.80129-41.285965-28.446828-29.293905 39.367707-5.858781 17.461613-37.080595v-0.139393l0.032167 0.069696 0.032168-0.069696v0.139393l17.396205 37.080595 39.368779 5.858781-28.382492 29.293905 6.80129 41.285965-35.21595-19.418471zM256.317386 292.903673l-52.82446 29.128779 10.202471-61.928946L171.024084 216.162647l59.053168-8.788172 26.190811-55.620892v-0.209089l0.049323 0.105081 0.049324-0.105081v0.209089l26.092163 55.620892L341.512042 216.162647l-42.572666 43.940859 10.201399 61.928946-52.823389-29.128779z" fill="#AFBAC4" p-id="8407"></path></svg>