<?xml version="1.0" standalone="no"?><!DOCTYPE svg PUBLIC "-//W3C//DTD SVG 1.1//EN" "http://www.w3.org/Graphics/SVG/1.1/DTD/svg11.dtd"><svg t="1621903667491" class="icon" viewBox="0 0 1024 1024" version="1.1" xmlns="http://www.w3.org/2000/svg" p-id="9903" xmlns:xlink="http://www.w3.org/1999/xlink" width="48" height="48"><defs><style type="text/css"></style></defs><path d="M512 182.016A328.32 328.32 0 0 0 182.016 512 328.32 328.32 0 0 0 512 841.984 328.32 328.32 0 0 0 841.984 512C846.72 328.384 695.68 182.016 512 182.016z m65.088-116.224A66.56 66.56 0 0 1 512 130.88a66.56 66.56 0 0 1-65.088-65.088C449.28 30.912 477.12 0.704 512 0.704c37.184 0 65.088 30.208 65.088 65.088z m-441.6 127.808c0 34.88 27.904 62.72 62.72 62.72 34.944 0 62.784-27.84 62.784-62.72 0-34.816-27.84-60.416-62.72-60.416-34.88 0-62.72 27.904-62.72 60.416zM65.792 449.28c34.88 0 65.088 27.84 65.088 62.72 0 34.88-30.208 62.72-65.088 62.72C30.912 574.72 0.704 546.88 0.704 512c0-32.512 30.208-62.72 65.088-62.72z m86.016 336.96a61.76 61.76 0 0 1 85.952 0 61.76 61.76 0 0 1 0 85.952 61.76 61.76 0 0 1-85.952 0c-25.6-23.232-25.6-60.416 0-85.952z m297.472 174.272c0-34.816 27.84-62.72 62.72-62.72 34.88 0 62.72 27.904 62.72 62.72 0 34.88-27.84 62.72-62.72 62.72a64 64 0 0 1-62.72-62.72z m336.96-85.952a61.76 61.76 0 0 1 0-86.016c23.232-23.232 65.088-23.232 88.32 0a61.76 61.76 0 0 1 0 86.016c-23.232 23.232-62.72 23.232-88.32 0z m174.272-299.84a62.464 62.464 0 0 1-62.72-62.72c0-34.88 27.904-62.72 62.72-62.72 34.88 0 62.72 27.84 62.72 62.72 0 34.88-27.84 62.72-62.72 62.72z m-85.952-334.656a61.76 61.76 0 0 1-86.016 0 61.76 61.76 0 0 1 0-85.952 61.76 61.76 0 0 1 86.016 0c23.232 20.928 23.232 62.72 0 85.952z" fill="#B6C6CF" p-id="9904"></path></svg>